<svg width="22" height="22" viewBox="0 0 22 22" fill="none" xmlns="http://www.w3.org/2000/svg">
<path d="M20.1668 10.1475V15.2625C20.1668 17.9667 17.9668 20.1667 15.2627 20.1667H6.73766C4.0335 20.1667 1.8335 17.9667 1.8335 15.2625V8.65332H19.9285C20.066 9.06582 20.1393 9.48749 20.1577 9.93665C20.1668 10.0008 20.1668 10.0833 20.1668 10.1475Z" fill="#507493"/>
<path opacity="0.4" d="M19.9285 8.65337H1.8335V5.88504C1.8335 3.64837 3.6485 1.83337 5.88516 1.83337H8.021C9.51516 1.83337 9.98266 2.31921 10.5785 3.11671L11.8618 4.82171C12.146 5.19754 12.1827 5.25254 12.7143 5.25254H15.2718C17.4443 5.24337 19.296 6.67337 19.9285 8.65337Z" fill="#507493"/>
</svg>
