<svg width="22" height="22" viewBox="0 0 22 22" fill="none" xmlns="http://www.w3.org/2000/svg">
<path opacity="0.4" d="M9.85414 2.24583C10.4958 1.705 11.5316 1.705 12.155 2.24583L13.6033 3.48333C13.8783 3.7125 14.4008 3.905 14.7675 3.905H16.3258C17.2975 3.905 18.095 4.7025 18.095 5.67417V7.2325C18.095 7.59917 18.2875 8.1125 18.5166 8.3875L19.7541 9.83583C20.295 10.4775 20.295 11.5133 19.7541 12.1367L18.5166 13.585C18.2875 13.86 18.095 14.3733 18.095 14.74V16.2983C18.095 17.27 17.2975 18.0675 16.3258 18.0675H14.7675C14.4008 18.0675 13.8875 18.26 13.6125 18.4892L12.1641 19.7267C11.5225 20.2675 10.4866 20.2675 9.86331 19.7267L8.41498 18.4892C8.13998 18.26 7.61747 18.0675 7.25997 18.0675H5.65581C4.68414 18.0675 3.88664 17.27 3.88664 16.2983V14.7308C3.88664 14.3733 3.70331 13.8508 3.47414 13.585L2.23664 12.1275C1.70497 11.495 1.70497 10.4683 2.23664 9.83583L3.47414 8.37834C3.70331 8.10334 3.88664 7.59 3.88664 7.2325V5.68333C3.88664 4.71167 4.68414 3.91417 5.65581 3.91417H7.24164C7.60831 3.91417 8.12164 3.72167 8.39664 3.4925L9.85414 2.24583Z" fill="#507493"/>
<path d="M11.0002 15.4644C10.496 15.4644 10.0835 15.0519 10.0835 14.5478C10.0835 14.0436 10.4868 13.6311 11.0002 13.6311C11.5043 13.6311 11.9168 14.0436 11.9168 14.5478C11.9168 15.0519 11.5135 15.4644 11.0002 15.4644Z" fill="#507493"/>
<path d="M11 12.5767C10.6242 12.5767 10.3125 12.265 10.3125 11.8892V7.45251C10.3125 7.07668 10.6242 6.76501 11 6.76501C11.3758 6.76501 11.6875 7.07668 11.6875 7.45251V11.88C11.6875 12.265 11.385 12.5767 11 12.5767Z" fill="#507493"/>
</svg>
