<svg width="18" height="18" viewBox="0 0 18 18" fill="none" xmlns="http://www.w3.org/2000/svg">
<path d="M7.49249 17.085C7.04249 17.085 6.61499 16.86 6.32249 16.4625L5.42251 15.2625C5.42251 15.27 5.385 15.2475 5.37 15.2475H5.09251C2.52751 15.2475 0.9375 14.55 0.9375 11.0925V8.09251C0.9375 4.93501 2.86501 4.11001 4.48501 3.96751C4.66501 3.94501 4.87501 3.9375 5.09251 3.9375H9.8925C12.6075 3.9375 14.0475 5.37751 14.0475 8.09251V11.0925C14.0475 11.31 14.04 11.52 14.01 11.7225C13.875 13.32 13.05 15.2475 9.8925 15.2475H9.59251L8.66249 16.4625C8.36999 16.86 7.94249 17.085 7.49249 17.085ZM5.09251 5.0625C4.92001 5.0625 4.755 5.07 4.5975 5.085C2.8575 5.235 2.0625 6.18751 2.0625 8.09251V11.0925C2.0625 13.665 2.85751 14.1225 5.09251 14.1225H5.3925C5.73 14.1225 6.11249 14.31 6.32249 14.58L7.2225 15.7875C7.3875 16.0125 7.5975 16.0125 7.7625 15.7875L8.66249 14.5875C8.87999 14.295 9.22501 14.1225 9.59251 14.1225H9.8925C11.7975 14.1225 12.75 13.32 12.8925 11.61C12.915 11.43 12.9225 11.265 12.9225 11.0925V8.09251C12.9225 6.00001 11.985 5.0625 9.8925 5.0625H5.09251Z" fill="#507493"/>
<path d="M7.49268 10.6426C7.07268 10.6426 6.74268 10.3051 6.74268 9.89258C6.74268 9.48008 7.08018 9.14258 7.49268 9.14258C7.90518 9.14258 8.24268 9.48008 8.24268 9.89258C8.24268 10.3051 7.91268 10.6426 7.49268 10.6426Z" fill="#507493"/>
<path d="M9.89258 10.6426C9.47258 10.6426 9.14258 10.3051 9.14258 9.89258C9.14258 9.48008 9.48008 9.14258 9.89258 9.14258C10.3051 9.14258 10.6426 9.48008 10.6426 9.89258C10.6426 10.3051 10.3051 10.6426 9.89258 10.6426Z" fill="#507493"/>
<path d="M5.09961 10.6426C4.67961 10.6426 4.34961 10.3051 4.34961 9.89258C4.34961 9.48008 4.68711 9.14258 5.09961 9.14258C5.51211 9.14258 5.84961 9.48008 5.84961 9.89258C5.84961 10.3051 5.51211 10.6426 5.09961 10.6426Z" fill="#507493"/>
<path d="M13.4552 12.2175C13.3052 12.2175 13.1552 12.1575 13.0502 12.045C12.9302 11.925 12.8777 11.7525 12.9002 11.5875C12.9227 11.43 12.9302 11.265 12.9302 11.0925V8.09251C12.9302 6.00001 11.9927 5.0625 9.90023 5.0625H5.10021C4.92771 5.0625 4.76273 5.07 4.60523 5.085C4.44023 5.1075 4.26772 5.04749 4.14772 4.93499C4.02772 4.81499 3.96021 4.65001 3.97521 4.48501C4.11021 2.86501 4.94271 0.9375 8.10021 0.9375H12.9002C15.6152 0.9375 17.0552 2.37751 17.0552 5.09251V8.09251C17.0552 11.25 15.1277 12.075 13.5077 12.2175C13.4852 12.2175 13.4702 12.2175 13.4552 12.2175ZM5.19023 3.9375H9.89272C12.6077 3.9375 14.0477 5.37751 14.0477 8.09251V10.995C15.3227 10.68 15.9227 9.74251 15.9227 8.09251V5.09251C15.9227 3.00001 14.9852 2.0625 12.8927 2.0625H8.09273C6.44273 2.0625 5.51273 2.6625 5.19023 3.9375Z" fill="#507493"/>
</svg>
