<svg width="22" height="22" viewBox="0 0 22 22" fill="none" xmlns="http://www.w3.org/2000/svg">
<path d="M18.3333 6.18754C19.7256 6.18754 20.8542 5.05893 20.8542 3.66671C20.8542 2.27449 19.7256 1.14587 18.3333 1.14587C16.9411 1.14587 15.8125 2.27449 15.8125 3.66671C15.8125 5.05893 16.9411 6.18754 18.3333 6.18754Z" fill="#507493"/>
<path opacity="0.4" d="M18.3335 7.33337C16.3077 7.33337 14.6668 5.69254 14.6668 3.66671C14.6668 2.99754 14.8593 2.37421 15.1802 1.83337H6.41683C3.88683 1.83337 1.8335 3.87754 1.8335 6.39837V11.88V12.7967C1.8335 15.3175 3.88683 17.3617 6.41683 17.3617H7.79183C8.03933 17.3617 8.36933 17.5267 8.52516 17.7284L9.90016 19.5525C10.5052 20.3592 11.4952 20.3592 12.1002 19.5525L13.4752 17.7284C13.6493 17.4992 13.9243 17.3617 14.2085 17.3617H15.5835C18.1135 17.3617 20.1668 15.3175 20.1668 12.7967V6.82004C19.626 7.14087 19.0027 7.33337 18.3335 7.33337Z" fill="#507493"/>
<path d="M11.0002 11C10.4868 11 10.0835 10.5875 10.0835 10.0833C10.0835 9.57913 10.496 9.16663 11.0002 9.16663C11.5043 9.16663 11.9168 9.57913 11.9168 10.0833C11.9168 10.5875 11.5135 11 11.0002 11Z" fill="#507493"/>
<path d="M14.6667 11C14.1533 11 13.75 10.5875 13.75 10.0833C13.75 9.57913 14.1625 9.16663 14.6667 9.16663C15.1708 9.16663 15.5833 9.57913 15.5833 10.0833C15.5833 10.5875 15.18 11 14.6667 11Z" fill="#507493"/>
<path d="M7.33317 11C6.81984 11 6.4165 10.5875 6.4165 10.0833C6.4165 9.57913 6.829 9.16663 7.33317 9.16663C7.83734 9.16663 8.24984 9.57913 8.24984 10.0833C8.24984 10.5875 7.8465 11 7.33317 11Z" fill="#507493"/>
</svg>
