<svg width="22" height="22" viewBox="0 0 22 22" fill="none" xmlns="http://www.w3.org/2000/svg">
<path opacity="0.4" d="M20.1668 9.16671V15.5834C20.1668 18.3334 18.3335 20.1667 15.5835 20.1667H6.41683C3.66683 20.1667 1.8335 18.3334 1.8335 15.5834V9.16671C1.8335 6.65504 3.36433 4.9042 5.72933 4.6292C5.94933 4.59253 6.1785 4.58337 6.41683 4.58337H15.5835C18.3335 4.58337 20.1668 6.41671 20.1668 9.16671Z" fill="#507493"/>
<path d="M7.104 1.83337V4.58337H6.4165C6.17817 4.58337 5.949 4.59253 5.729 4.6292V1.83337C5.729 1.45754 6.04067 1.14587 6.4165 1.14587C6.79234 1.14587 7.104 1.45754 7.104 1.83337Z" fill="#507493"/>
<path d="M7.22331 14.6668C8.48896 14.6668 9.51497 13.6408 9.51497 12.3752C9.51497 11.1095 8.48896 10.0835 7.22331 10.0835C5.95765 10.0835 4.93164 11.1095 4.93164 12.3752C4.93164 13.6408 5.95765 14.6668 7.22331 14.6668Z" fill="#507493"/>
<path d="M16.3898 11.2292H12.7231C12.3473 11.2292 12.0356 10.9176 12.0356 10.5417C12.0356 10.1659 12.3473 9.85425 12.7231 9.85425H16.3898C16.7656 9.85425 17.0773 10.1659 17.0773 10.5417C17.0773 10.9176 16.7656 11.2292 16.3898 11.2292Z" fill="#507493"/>
<path d="M13.1815 14.896H12.7231C12.3473 14.896 12.0356 14.5843 12.0356 14.2085C12.0356 13.8327 12.3473 13.521 12.7231 13.521H13.1815C13.5573 13.521 13.869 13.8327 13.869 14.2085C13.869 14.5843 13.5573 14.896 13.1815 14.896Z" fill="#507493"/>
<path d="M16.39 14.896H15.9316C15.5558 14.896 15.2441 14.5843 15.2441 14.2085C15.2441 13.8327 15.5558 13.521 15.9316 13.521H16.39C16.7658 13.521 17.0775 13.8327 17.0775 14.2085C17.0775 14.5843 16.7658 14.896 16.39 14.896Z" fill="#507493"/>
</svg>
